<svg width="183" height="40" viewBox="0 0 183 40" fill="none" xmlns="http://www.w3.org/2000/svg">
<path fillRule="evenodd" clipRule="evenodd" d="M5.77301 34.225C8.21634 36.6666 12.143 36.6666 19.9997 36.6666C27.8563 36.6666 31.7847 36.6666 34.2247 34.225C36.6663 31.7866 36.6663 27.8566 36.6663 20C36.6663 12.1433 36.6663 8.21498 34.2247 5.77331C31.7863 3.33331 27.8563 3.33331 19.9997 3.33331C12.143 3.33331 8.21467 3.33331 5.77301 5.77331C3.33301 8.21665 3.33301 12.1433 3.33301 20C3.33301 27.8566 3.33301 31.785 5.77301 34.225ZM15.833 14.5833C14.7617 14.5833 13.7144 14.901 12.8237 15.4962C11.9329 16.0914 11.2386 16.9373 10.8287 17.9271C10.4187 18.9169 10.3114 20.006 10.5204 21.0567C10.7294 22.1074 11.2453 23.0726 12.0028 23.8301C12.7604 24.5877 13.7255 25.1036 14.7763 25.3126C15.827 25.5216 16.9161 25.4143 17.9059 25.0043C18.8956 24.5944 19.7416 23.9001 20.3368 23.0093C20.932 22.1186 21.2497 21.0713 21.2497 20C21.2497 19.6685 21.3814 19.3505 21.6158 19.1161C21.8502 18.8817 22.1682 18.75 22.4997 18.75C22.8312 18.75 23.1491 18.8817 23.3836 19.1161C23.618 19.3505 23.7497 19.6685 23.7497 20C23.7497 21.5657 23.2854 23.0964 22.4155 24.3982C21.5456 25.7001 20.3092 26.7148 18.8626 27.314C17.416 27.9132 15.8242 28.07 14.2885 27.7645C12.7529 27.4591 11.3422 26.7051 10.2351 25.5979C9.12791 24.4907 8.37392 23.0801 8.06846 21.5444C7.76299 20.0088 7.91977 18.417 8.51896 16.9704C9.11816 15.5238 10.1329 14.2874 11.4347 13.4175C12.7366 12.5476 14.2672 12.0833 15.833 12.0833C16.1645 12.0833 16.4825 12.215 16.7169 12.4494C16.9513 12.6838 17.083 13.0018 17.083 13.3333C17.083 13.6648 16.9513 13.9828 16.7169 14.2172C16.4825 14.4516 16.1645 14.5833 15.833 14.5833ZM29.583 20C29.583 21.4366 29.0123 22.8143 27.9965 23.8301C26.9807 24.846 25.6029 25.4166 24.1663 25.4166C23.8348 25.4166 23.5169 25.5483 23.2825 25.7828C23.048 26.0172 22.9163 26.3351 22.9163 26.6666C22.9163 26.9982 23.048 27.3161 23.2825 27.5505C23.5169 27.785 23.8348 27.9166 24.1663 27.9166C25.7321 27.9166 27.2627 27.4523 28.5646 26.5824C29.8665 25.7126 30.8812 24.4761 31.4804 23.0296C32.0796 21.583 32.2364 19.9912 31.9309 18.4555C31.6254 16.9198 30.8714 15.5092 29.7643 14.4021C28.6571 13.2949 27.2465 12.5409 25.7108 12.2354C24.1751 11.93 22.5833 12.0867 21.1368 12.6859C19.6902 13.2851 18.4538 14.2998 17.5839 15.6017C16.714 16.9036 16.2497 18.4342 16.2497 20C16.2497 20.3315 16.3814 20.6494 16.6158 20.8839C16.8502 21.1183 17.1682 21.25 17.4997 21.25C17.8312 21.25 18.1491 21.1183 18.3836 20.8839C18.618 20.6494 18.7497 20.3315 18.7497 20C18.7497 18.5634 19.3204 17.1856 20.3362 16.1698C21.352 15.154 22.7298 14.5833 24.1663 14.5833C25.6029 14.5833 26.9807 15.154 27.9965 16.1698C29.0123 17.1856 29.583 18.5634 29.583 20Z" fill="#633CFF"/>
<path d="M61.2472 32.15V28.195L61.5935 28.265C61.3626 29.5483 60.6701 30.575 59.5158 31.345C58.3846 32.115 57.0226 32.5 55.4297 32.5C53.8138 32.5 52.4056 32.1267 51.2052 31.38C50.0278 30.61 49.116 29.5367 48.4696 28.16C47.8232 26.7833 47.5 25.1617 47.5 23.295C47.5 21.405 47.8347 19.76 48.5042 18.36C49.1737 16.96 50.1086 15.875 51.309 15.105C52.5326 14.335 53.9523 13.95 55.5682 13.95C57.2535 13.95 58.6155 14.3467 59.6543 15.14C60.7162 15.9333 61.3395 17.0183 61.5242 18.395L61.1433 18.43V6.95H66.3375V32.15H61.2472ZM57.0919 28.3C58.3154 28.3 59.308 27.8683 60.0698 27.005C60.8317 26.1183 61.2126 24.8583 61.2126 23.225C61.2126 21.5917 60.8201 20.3433 60.0352 19.48C59.2734 18.5933 58.2692 18.15 57.0226 18.15C55.8222 18.15 54.8295 18.5933 54.0446 19.48C53.2828 20.3667 52.9019 21.6267 52.9019 23.26C52.9019 24.8933 53.2828 26.1417 54.0446 27.005C54.8295 27.8683 55.8453 28.3 57.0919 28.3Z" fill="#333333"/>
<path d="M78.801 32.5C76.8387 32.5 75.1304 32.115 73.6761 31.345C72.2217 30.5517 71.0905 29.455 70.2826 28.055C69.4977 26.655 69.1052 25.045 69.1052 23.225C69.1052 21.3817 69.4977 19.7717 70.2826 18.395C71.0905 16.995 72.2102 15.91 73.6415 15.14C75.0727 14.3467 76.7349 13.95 78.6278 13.95C80.4516 13.95 82.0329 14.3233 83.3718 15.07C84.7108 15.8167 85.7496 16.855 86.4883 18.185C87.227 19.515 87.5964 21.0783 87.5964 22.875C87.5964 23.2483 87.5849 23.5983 87.5618 23.925C87.5387 24.2283 87.5041 24.52 87.4579 24.8H72.1525V21.335H83.2679L82.3676 21.965C82.3676 20.5183 82.0213 19.4567 81.3288 18.78C80.6593 18.08 79.7359 17.73 78.5586 17.73C77.1966 17.73 76.1346 18.1967 75.3728 19.13C74.6341 20.0633 74.2647 21.4633 74.2647 23.33C74.2647 25.15 74.6341 26.5033 75.3728 27.39C76.1346 28.2767 77.2658 28.72 78.7663 28.72C79.5974 28.72 80.313 28.58 80.9133 28.3C81.5135 28.02 81.9636 27.565 82.2637 26.935H87.1462C86.5691 28.6617 85.5765 30.0267 84.1683 31.03C82.7832 32.01 80.9941 32.5 78.801 32.5Z" fill="#333333"/>
<path d="M94.6802 32.15L87.72 14.3H93.2951L98.7316 30.96H95.8229L101.225 14.3H106.661L99.7012 32.15H94.6802Z" fill="#333333"/>
<path d="M108.669 32.15V6.95H113.863V32.15H108.669Z" fill="#333333"/>
<path d="M118.002 32.15V14.3H123.196V32.15H118.002ZM117.829 11.92V6.25H123.369V11.92H117.829Z" fill="#333333"/>
<path d="M127.335 32.15V14.3H132.425V18.5H132.529V32.15H127.335ZM139.628 32.15V21.09C139.628 20.11 139.374 19.375 138.866 18.885C138.381 18.395 137.666 18.15 136.719 18.15C135.911 18.15 135.184 18.3367 134.538 18.71C133.914 19.0833 133.418 19.5967 133.049 20.25C132.702 20.9033 132.529 21.6733 132.529 22.56L132.079 18.255C132.656 16.9483 133.499 15.91 134.607 15.14C135.738 14.3467 137.123 13.95 138.762 13.95C140.725 13.95 142.225 14.51 143.264 15.63C144.303 16.7267 144.822 18.2083 144.822 20.075V32.15H139.628Z" fill="#333333"/>
<path d="M148.775 32.15V6.95H153.969V32.15H148.775ZM160.098 32.15L152.757 22.875L159.925 14.3H165.915L157.501 23.68L157.743 22.035L166.262 32.15H160.098Z" fill="#333333"/>
<path d="M174.743 32.5C172.158 32.5 170.103 31.975 168.58 30.925C167.056 29.875 166.225 28.4283 166.086 26.585H170.727C170.842 27.3783 171.234 27.985 171.904 28.405C172.596 28.8017 173.543 29 174.743 29C175.828 29 176.613 28.8483 177.098 28.545C177.606 28.2183 177.86 27.7633 177.86 27.18C177.86 26.7367 177.71 26.3983 177.41 26.165C177.133 25.9083 176.613 25.6983 175.852 25.535L173.012 24.94C170.911 24.4967 169.365 23.8317 168.372 22.945C167.379 22.035 166.883 20.8683 166.883 19.445C166.883 17.7183 167.541 16.3767 168.857 15.42C170.173 14.44 172.008 13.95 174.363 13.95C176.694 13.95 178.552 14.4283 179.938 15.385C181.323 16.3183 182.084 17.625 182.223 19.305H177.583C177.491 18.6983 177.167 18.2433 176.613 17.94C176.059 17.6133 175.274 17.45 174.259 17.45C173.335 17.45 172.643 17.59 172.181 17.87C171.742 18.1267 171.523 18.5 171.523 18.99C171.523 19.41 171.708 19.7483 172.077 20.005C172.446 20.2383 173.058 20.4483 173.912 20.635L177.098 21.3C178.876 21.6733 180.215 22.3733 181.115 23.4C182.038 24.4033 182.5 25.5933 182.5 26.97C182.5 28.72 181.819 30.085 180.457 31.065C179.118 32.0217 177.214 32.5 174.743 32.5Z" fill="#333333"/>
</svg>
